<?xml version="1.0" encoding="utf-8"?>
<!-- Generator: Adobe Illustrator 22.1.0, SVG Export Plug-In . SVG Version: 6.00 Build 0)  -->
<svg version="1.1" id="Layer_1" xmlns="http://www.w3.org/2000/svg" xmlns:xlink="http://www.w3.org/1999/xlink" x="0px" y="0px"
	 viewBox="0 0 319 204.7" style="enable-background:new 0 0 319 204.7;" xml:space="preserve">
<style type="text/css">
	.st0{fill:#B2AC56;stroke:#B2AC56;stroke-width:4;stroke-linecap:round;stroke-linejoin:round;}
	.st1{fill:none;stroke:#B2AC56;stroke-width:5;stroke-miterlimit:10;}
	.st2{fill:#B2AC56;stroke:#B2AC56;stroke-width:5;stroke-miterlimit:10;}
	.st3{fill:#B2AC56;stroke:#B2AC56;stroke-width:2.638;stroke-linecap:round;stroke-linejoin:round;}
	.st4{fill:#B2AC56;stroke:#B2AC56;stroke-width:3.403;stroke-linecap:round;stroke-linejoin:round;}
</style>
<title>Asset 1</title>
<g id="Layer_2_1_">
	<g id="Layer_2-2">
		<polygon class="st0" points="182.6,56.3 187.1,64.5 196.5,65 188.3,69.5 187.8,78.8 183.3,70.6 173.9,70.1 182.2,65.6 		"/>
		<polygon class="st0" points="293,2 300.8,16.2 317,17.1 302.7,24.8 301.9,41 294.1,26.8 278,25.9 292.2,18.2 		"/>
		<polygon class="st0" points="23.1,109.7 33.9,129.6 56.6,130.8 36.7,141.6 35.5,164.3 24.7,144.4 2,143.2 21.9,132.3 		"/>
		<line class="st1" x1="63" y1="195" x2="143.8" y2="176.6"/>
		<line class="st1" x1="63" y1="195" x2="29.3" y2="137"/>
		<line class="st1" x1="29.3" y1="137" x2="138.9" y2="106.9"/>
		<line class="st1" x1="143.8" y1="176.6" x2="138.9" y2="106.9"/>
		<line class="st1" x1="297.5" y1="21.5" x2="235.4" y2="35.6"/>
		<line class="st1" x1="235.4" y1="35.6" x2="185.2" y2="67.6"/>
		<line class="st2" x1="185.2" y1="67.6" x2="138.9" y2="106.9"/>
		<circle class="st3" cx="138.9" cy="106.9" r="6.2"/>
		<circle class="st3" cx="235.4" cy="35.6" r="6.2"/>
		<circle class="st3" cx="143.8" cy="176.6" r="6.2"/>
		<circle class="st4" cx="63" cy="195" r="8"/>
	</g>
</g>
</svg>
