<?xml version="1.0" encoding="utf-8"?>
<!-- Generator: Adobe Illustrator 22.1.0, SVG Export Plug-In . SVG Version: 6.00 Build 0)  -->
<svg version="1.1" id="Layer_1" xmlns="http://www.w3.org/2000/svg" xmlns:xlink="http://www.w3.org/1999/xlink" x="0px" y="0px"
	 viewBox="0 0 292 104.2" style="enable-background:new 0 0 292 104.2;" xml:space="preserve">
<style type="text/css">
	.st0{fill:none;stroke:#B2AC56;stroke-width:12.118;stroke-linecap:round;stroke-linejoin:round;}
	.st1{fill:none;stroke:#B2AC56;stroke-width:12.224;stroke-linecap:round;stroke-linejoin:round;}
</style>
<title>Asset 2</title>
<g id="Layer_2_1_">
	<g id="Layer_2-2">
		<path class="st0" d="M6.1,31.7C41,7.5,120-1.1,182.4,12.5c49.9,10.8,67.7,35.3,39.7,54.6c-22.4,15.5-72.9,21-112.8,12.3
			c-32-6.9-43.3-22.6-25.4-35c14.3-9.9,46.7-13.4,72.2-7.9c20.4,4.4,27.7,14.5,16.3,22.4c-9.2,6.3-29.9,8.6-46.2,5
			c-13.1-2.8-17.8-9.2-10.4-14.3c5.9-4.1,19.1-5.5,29.6-3.2c8.4,1.8,11.4,5.9,6.7,9.2"/>
		<path class="st1" d="M285.9,55.3c-12.1,27.4-79.9,46.3-151.5,42.2C77,94.2,38.4,73.7,48,51.7c7.7-17.6,51.1-29.6,97-27
			c36.7,2.1,61.4,15.2,55.2,29.3c-4.9,11.2-32.7,19-62.1,17.3c-23.5-1.4-39.3-9.8-35.3-18.7c3.2-7.2,20.9-12.1,39.7-11.1
			c15,0.9,25.2,6.2,22.6,12c-2,4.6-13.4,7.8-25.4,7.1c-9.6-0.6-16.1-4-14.5-7.7"/>
	</g>
</g>
</svg>
